<svg width="512" height="512" viewBox="0 0 512 512" fill="none" xmlns="http://www.w3.org/2000/svg">
<g clip-path="url(#clip0_3225_2722)">
<rect width="512" height="512" fill="#25D366"/>
<path d="M435.2 0H76.8C34.3845 0 0 34.3845 0 76.8V435.2C0 477.615 34.3845 512 76.8 512H435.2C477.615 512 512 477.615 512 435.2V76.8C512 34.3845 477.615 0 435.2 0Z" fill="#25D366"/>
<path d="M123 393.001L137 328.001C119.006 299.619 111.986 265.647 117.258 232.458C122.53 199.269 139.731 169.144 165.634 147.736C191.538 126.327 224.362 115.106 257.95 116.178C291.538 117.249 323.581 130.54 348.067 153.557C372.552 176.573 387.798 207.733 390.943 241.191C394.089 274.649 384.918 308.104 365.151 335.281C345.384 362.457 316.38 381.487 283.58 388.8C250.78 396.113 216.439 391.206 187 375.001L123 393.001Z" fill="#25D366" stroke="white" stroke-width="26"/>
<path d="M308.001 273.001C305.001 271.001 302.001 270.001 299.001 274.001L287.001 290.001C284.001 292.001 282.001 293.001 278.001 291.001C263.001 283.001 242.001 274.001 224.001 244.001C223.001 240.001 225.001 238.001 227.001 236.001L236.001 222.001C238.001 220.001 237.001 218.001 236.001 216.001L224.001 187.001C221.001 179.001 218.001 180.001 215.001 180.001H207.001C205.001 180.001 201.001 181.001 197.001 185.001C175.001 207.001 184.001 238.001 200.001 258.001C203.001 262.001 223.001 298.001 266.001 317.001C298.001 331.001 305.001 329.001 314.001 327.001C325.001 326.001 336.001 317.001 341.001 308.001C342.001 305.001 347.001 292.001 343.001 290.001" fill="white"/>
</g>
<defs>
<clipPath id="clip0_3225_2722">
<rect width="512" height="512" fill="white"/>
</clipPath>
</defs>
</svg>
