<svg width="301" height="720" viewBox="0 0 301 720" fill="none" xmlns="http://www.w3.org/2000/svg">
<path d="M1.00004 720L0.775004 710.025C0.475004 699.975 0.0250773 680.025 2.72508 660C5.50008 639.975 11.5 620.025 15.775 600C19.975 579.975 22.525 560.025 23.65 540C24.775 519.975 24.475 500.025 22.9 480C21.25 459.975 18.25 440.025 16.525 420C14.725 399.975 14.2751 380.025 11.7251 360C9.25008 339.975 4.75004 320.025 7.00004 300C9.25004 279.975 18.25 260.025 19.525 240C20.725 219.975 14.275 200.025 11.125 180C7.97504 159.975 8.27504 140.025 10.375 120C12.475 99.975 16.525 80.025 19.9 60C23.275 39.975 25.975 20.025 27.4 9.975L28.75 0H301V9.975C301 20.025 301 39.975 301 60C301 80.025 301 99.975 301 120C301 140.025 301 159.975 301 180C301 200.025 301 219.975 301 240C301 260.025 301 279.975 301 300C301 320.025 301 339.975 301 360C301 380.025 301 399.975 301 420C301 440.025 301 459.975 301 480C301 500.025 301 519.975 301 540C301 560.025 301 579.975 301 600C301 620.025 301 639.975 301 660C301 680.025 301 699.975 301 710.025V720H1.00004Z" fill="#BB0A08" fill-opacity="0.8"/>
<path d="M101.5 720L102.1 710.025C102.775 699.975 103.975 680.025 103.75 660C103.525 639.975 101.725 620.025 101.125 600C100.525 579.975 100.975 560.025 100.6 540C100.225 519.975 99.025 500.025 100.15 480C101.275 459.975 104.725 440.025 106 420C107.275 399.975 106.225 380.025 103.15 360C100 339.975 94.75 320.025 92.125 300C89.5 279.975 89.5001 260.025 90.4751 240C91.5251 219.975 93.475 200.025 95.275 180C97 159.975 98.5001 140.025 98.7251 120C99.0251 99.975 97.9751 80.025 96.4751 60C94.9751 39.975 93.0251 20.025 91.9751 9.975L91 0H301V9.975C301 20.025 301 39.975 301 60C301 80.025 301 99.975 301 120C301 140.025 301 159.975 301 180C301 200.025 301 219.975 301 240C301 260.025 301 279.975 301 300C301 320.025 301 339.975 301 360C301 380.025 301 399.975 301 420C301 440.025 301 459.975 301 480C301 500.025 301 519.975 301 540C301 560.025 301 579.975 301 600C301 620.025 301 639.975 301 660C301 680.025 301 699.975 301 710.025V720H101.5Z" fill="#BB0A08"/>
<path d="M101.5 720L102.1 710.025C102.775 699.975 103.975 680.025 103.75 660C103.525 639.975 101.725 620.025 101.125 600C100.525 579.975 100.975 560.025 100.6 540C100.225 519.975 99.025 500.025 100.15 480C101.275 459.975 104.725 440.025 106 420C107.275 399.975 106.225 380.025 103.15 360C100 339.975 94.75 320.025 92.125 300C89.5 279.975 89.5001 260.025 90.4751 240C91.5251 219.975 93.475 200.025 95.275 180C97 159.975 98.5001 140.025 98.7251 120C99.0251 99.975 97.9751 80.025 96.4751 60C94.9751 39.975 93.0251 20.025 91.9751 9.975L91 0H301V9.975C301 20.025 301 39.975 301 60C301 80.025 301 99.975 301 120C301 140.025 301 159.975 301 180C301 200.025 301 219.975 301 240C301 260.025 301 279.975 301 300C301 320.025 301 339.975 301 360C301 380.025 301 399.975 301 420C301 440.025 301 459.975 301 480C301 500.025 301 519.975 301 540C301 560.025 301 579.975 301 600C301 620.025 301 639.975 301 660C301 680.025 301 699.975 301 710.025V720H101.5Z" fill="#BB0A08"/>
<path d="M174.25 720L176.35 710.025C178.525 699.975 182.725 680.025 184.15 660C185.5 639.975 184 620.025 182.35 600C180.775 579.975 178.975 560.025 179.275 540C179.5 519.975 181.75 500.025 183.25 480C184.75 459.975 185.5 440.025 185.125 420C184.75 399.975 183.25 380.025 180.625 360C178 339.975 174.25 320.025 172.9 300C171.475 279.975 172.525 260.025 175 240C177.475 219.975 181.525 200.025 182.65 180C183.775 159.975 181.975 140.025 180.625 120C179.275 99.975 178.225 80.025 178.975 60C179.725 39.975 182.275 20.025 183.475 9.975L184.75 0H301V9.975C301 20.025 301 39.975 301 60C301 80.025 301 99.975 301 120C301 140.025 301 159.975 301 180C301 200.025 301 219.975 301 240C301 260.025 301 279.975 301 300C301 320.025 301 339.975 301 360C301 380.025 301 399.975 301 420C301 440.025 301 459.975 301 480C301 500.025 301 519.975 301 540C301 560.025 301 579.975 301 600C301 620.025 301 639.975 301 660C301 680.025 301 699.975 301 710.025V720H174.25Z" fill="#860004"/>
</svg>
