<?xml version="1.0" encoding="utf-8"?><!-- Uploaded to: SVG Repo, www.svgrepo.com, Generator: SVG Repo Mixer Tools -->
<svg xmlns="http://www.w3.org/2000/svg" width="800" height="481" viewBox="0 0 800 481" fill="none">
<path d="M779 161C714.25 165.375 621.875 229.375 575.125 250.375C538.75 266.75 507.375 280.875 480 280.875C451.75 280.875 447.5 260.625 453.375 216C454.75 206 468 117 400 120.875C368.625 122.75 319.625 151.875 188.125 278.375L240 148.75C278 53.8749 173.5 -40.6251 77.8748 20.2499L9.24977 66.3749C-0.000226021 72.2499 -2.75023 84.6249 3.12477 93.9999L24.6248 127.75C30.4998 137.125 42.8748 139.875 52.2498 133.875L124.75 85.2499C147.75 70.6249 175.625 94.2499 165.625 119.125L42.8748 426.125C34.3748 447.25 46.2498 481 79.9998 481C90.3748 481 100.625 477 108.25 469.25C161 416.5 301.625 280.875 372.25 224.5C369.5 260.125 369.625 298.125 398 329.25C417.125 350.25 444.625 360.875 479.875 360.875C524.375 360.875 564.875 342.625 607.75 323.375C649 304.875 731.5 245.125 780.75 241.125C791.375 240.25 799.75 232 799.75 221.375V181.25C800 169.875 790.375 160.25 779 161Z" fill="black"/>
</svg>